<svg width="187" height="28" viewBox="0 0 187 28" fill="none" xmlns="http://www.w3.org/2000/svg">
<g id="Livello_1" clip-path="url(#clip0_14_84)">
<g id="Group">
<path id="Vector" d="M106.467 17.2626V27.91H101.462V21.0399C101.462 20.1882 101.457 19.334 101.462 18.4823C101.47 17.1726 101.47 15.9118 100.701 14.7796C99.7872 13.4339 98.0633 12.7675 96.4422 12.8987C94.5099 13.0583 93.0973 14.1698 91.7516 15.4486C90.8073 16.3466 89.8604 17.2472 88.9161 18.1452C87.2693 19.7096 85.6252 21.2766 83.9784 22.841C83.9604 22.859 83.9398 22.8771 83.9218 22.8951C82.5658 24.2176 81.5803 25.3472 80.0082 26.3687C78.4361 27.3953 76.6607 27.9074 74.6846 27.9074C73.3003 27.9074 72.006 27.6449 70.7915 27.1226C69.5771 26.5951 68.517 25.8824 67.6087 24.9767C66.7055 24.0684 65.9902 23.0083 65.4628 21.7938C64.9404 20.5793 64.678 19.2851 64.678 17.9008C64.678 16.5165 64.9404 15.2222 65.4628 14.0077C65.9902 12.7932 66.703 11.7331 67.6087 10.83C68.517 9.92172 69.5771 9.20898 70.7915 8.68408C74.7669 6.97299 79.5502 8.12315 82.2905 11.481C82.5221 11.7666 82.7382 12.0651 82.9337 12.3738C82.9337 12.5359 82.028 13.1612 81.8839 13.2847C81.4748 13.6372 81.0683 13.9923 80.6592 14.3448C80.1548 14.7796 79.6608 15.2274 79.1488 15.6545C78.7422 14.844 78.1453 14.1827 77.3605 13.6707C76.5757 13.156 75.6803 12.9013 74.682 12.9013C73.9898 12.9013 73.3414 13.0325 72.7342 13.2924C72.1269 13.5549 71.5969 13.91 71.1466 14.3654C70.6938 14.8182 70.3361 15.3457 70.0737 15.9555C69.8086 16.5628 69.6774 17.2112 69.6774 17.9008C69.6774 18.5903 69.8086 19.2413 70.0737 19.8486C70.3361 20.4558 70.6912 20.9859 71.1466 21.4361C71.5969 21.889 72.1269 22.2467 72.7342 22.5091C73.3414 22.7741 73.9898 22.9054 74.682 22.9054C75.6803 22.9054 76.5757 22.6481 77.3605 22.136C78.1453 21.624 78.4258 21.4284 79.4318 20.5407C80.6746 19.334 81.9354 18.1401 83.2013 16.9565C85.4167 14.8826 87.645 12.8164 89.989 10.8866C91.1804 9.90628 92.3871 8.99799 93.8615 8.47823C96.0666 7.70117 98.5676 7.70117 100.726 8.63004C100.873 8.69179 101.015 8.75612 101.156 8.83074C102.108 9.29646 102.962 9.9037 103.709 10.6499C104.565 11.5067 105.239 12.5025 105.726 13.6372C106.091 14.4837 106.323 15.374 106.413 16.3132C106.444 16.6245 106.459 16.9384 106.459 17.2626H106.467Z" fill="url(#paint0_linear_14_84)"/>
<g id="Group_2">
<path id="Vector_2" d="M87.7068 0V10.6267C87.995 10.3334 91.2679 7.66514 92.7114 6.70539V0H87.7068Z" fill="black"/>
<path id="Vector_3" d="M87.7068 21.5982V27.9999H92.7114V16.9409C90.5268 18.809 87.7068 21.5982 87.7068 21.5982Z" fill="black"/>
</g>
</g>
<g id="Group_3">
<path id="Vector_4" d="M22.1044 3.62549H26.9803V28H22.1044V13.3748L14.7918 24.3437H12.3551L5.04255 13.3748V28H0.166626V3.62549H5.04255L13.5748 16.8227L22.1044 3.62549Z" fill="black"/>
<path id="Vector_5" d="M44.1117 8.50195H48.2209V28.0031H43.3449V26.6806C42.6245 27.0974 41.8526 27.4242 41.0292 27.6558C40.2058 27.8874 39.3516 28.0031 38.469 28.0031C37.1233 28.0031 35.8574 27.7484 34.6738 27.2364C33.4902 26.7269 32.4558 26.0296 31.5732 25.1471C30.6907 24.2645 29.9934 23.2327 29.4839 22.0491C28.9719 20.8655 28.7172 19.5995 28.7172 18.2538C28.7172 16.9081 28.9719 15.6422 29.4839 14.4586C29.9934 13.275 30.6907 12.2406 31.5732 11.358C32.4558 10.4755 33.4876 9.78076 34.6738 9.26872C35.8574 8.75926 37.1233 8.50195 38.469 8.50195C39.3516 8.50195 40.2032 8.61774 41.0292 8.84932C41.8526 9.08089 42.6245 9.40767 43.3449 9.8245V9.47714L44.1117 8.50195ZM38.4716 23.1272C39.1457 23.1272 39.7761 23.0011 40.3705 22.7438C40.9623 22.4891 41.4795 22.1417 41.9195 21.6992C42.3595 21.2592 42.7094 20.742 42.9641 20.1502C43.2189 19.5584 43.3475 18.9254 43.3475 18.2513C43.3475 17.5771 43.2189 16.9442 42.9641 16.3523C42.7094 15.7605 42.3595 15.2434 41.9195 14.8034C41.4795 14.3634 40.9623 14.0134 40.3705 13.7587C39.7787 13.504 39.1457 13.3753 38.4716 13.3753C37.7974 13.3753 37.1645 13.504 36.5727 13.7587C35.9809 14.0134 35.4637 14.3634 35.0237 14.8034C34.5837 15.2434 34.2338 15.7605 33.979 16.3523C33.7243 16.9442 33.5957 17.5771 33.5957 18.2513C33.5957 18.9254 33.7217 19.5558 33.979 20.1502C34.2338 20.742 34.5837 21.2592 35.0237 21.6992C35.4637 22.1392 35.9809 22.4891 36.5727 22.7438C37.1645 22.9986 37.7974 23.1272 38.4716 23.1272Z" fill="black"/>
<path id="Vector_6" d="M63.3683 26.5386C63.0673 26.8164 62.6839 27.0609 62.2182 27.2693C61.8219 27.4546 61.3176 27.6244 60.7027 27.7736C60.0877 27.9254 59.3492 28 58.4924 28C57.6356 28 56.8663 27.8431 56.1252 27.5292C55.3816 27.2153 54.7332 26.7804 54.1748 26.2221C53.6165 25.6637 53.1816 25.0153 52.8703 24.2717C52.5564 23.5281 52.3994 22.7407 52.3994 21.9045V13.3722H49.9628V8.49628H52.3994V3.62549H57.2754V8.50143H62.6376V13.3774H57.2754V20.2011C57.2754 20.8058 57.4014 21.2689 57.6588 21.5931C57.9135 21.9173 58.1914 22.1618 58.495 22.3239C58.8424 22.5091 59.2489 22.6146 59.7146 22.6378C60.2009 22.6378 60.6152 22.5915 60.9497 22.4989C61.2867 22.4062 61.5595 22.3007 61.7679 22.1849C62.0226 22.0692 62.2208 21.9302 62.3597 21.7681L63.3683 26.5386Z" fill="black"/>
</g>
<g id="Group_4">
<path id="Vector_7" d="M120.258 3.62549C122.301 3.62549 124.105 4.05004 125.672 4.89658C127.239 5.74311 128.685 6.92157 130.008 8.43196L126.212 11.5659C125.538 10.5908 124.674 9.83685 123.619 9.30165C122.561 8.76903 121.442 8.50143 120.258 8.50143C119.26 8.50143 118.313 8.69184 117.42 9.07522C116.527 9.45861 115.748 9.98094 115.087 10.6422C114.425 11.3035 113.903 12.0754 113.52 12.958C113.136 13.8405 112.946 14.7926 112.946 15.8141C112.946 16.8356 113.136 17.7593 113.52 18.6521C113.903 19.545 114.425 20.3246 115.087 20.9859C115.748 21.6472 116.525 22.1695 117.42 22.5529C118.313 22.9363 119.26 23.1267 120.258 23.1267C121.141 23.1267 122.005 22.9646 122.852 22.6404C123.699 22.3162 124.46 21.8504 125.132 21.2484V18.2533H120.256V13.3774H130.005V23.1267C128.752 24.6576 127.324 25.8541 125.721 26.7135C124.121 27.5729 122.296 28.0026 120.253 28.0026C118.581 28.0026 117.003 27.6836 115.516 27.0455C114.029 26.4073 112.735 25.5376 111.634 24.4338C110.53 23.3325 109.66 22.0383 109.022 20.5511C108.384 19.0664 108.065 17.4865 108.065 15.8141C108.065 14.1416 108.384 12.5643 109.022 11.0796C109.66 9.59498 110.53 8.30073 111.634 7.19689C112.735 6.09562 114.029 5.22336 115.516 4.58524C117.001 3.94712 118.581 3.62806 120.253 3.62806L120.258 3.62549Z" fill="black"/>
<path id="Vector_8" d="M146.2 8.50195H151.076V18.8431C151.076 20.0961 150.837 21.2797 150.363 22.3939C149.887 23.508 149.231 24.4832 148.395 25.3194C147.558 26.1557 146.588 26.8118 145.487 27.2878C144.383 27.7639 143.207 28.0006 141.952 28.0006C140.696 28.0006 139.515 27.7639 138.401 27.2878C137.287 26.8118 136.312 26.1557 135.475 25.3194C134.639 24.4832 133.983 23.508 133.507 22.3939C133.031 21.2797 132.794 20.0961 132.794 18.8431V8.50195H137.67V18.8431C137.67 19.4246 137.781 19.9752 138.002 20.4975C138.223 21.0199 138.53 21.4779 138.926 21.8741C139.32 22.2704 139.78 22.5766 140.302 22.7979C140.825 23.0191 141.375 23.1298 141.957 23.1298C142.538 23.1298 143.089 23.0191 143.611 22.7979C144.134 22.5766 144.587 22.2704 144.97 21.8741C145.353 21.4804 145.654 21.0199 145.876 20.4975C146.097 19.9752 146.208 19.4246 146.208 18.8431V8.50195H146.2Z" fill="black"/>
<path id="Vector_9" d="M162.739 8.50195C163.923 8.50195 165.073 8.71037 166.187 9.12978L164.656 13.7613C164.005 13.5065 163.367 13.3779 162.742 13.3779C162.068 13.3779 161.435 13.5065 160.843 13.7613C160.251 14.016 159.734 14.3659 159.294 14.8059C158.854 15.2459 158.504 15.7631 158.249 16.3549C157.995 16.9467 157.866 17.5797 157.866 18.2538V28.0031H152.99V8.50195H157.099L157.866 9.47714V9.8245C159.351 8.94195 160.977 8.50195 162.742 8.50195H162.739Z" fill="black"/>
<path id="Vector_10" d="M181.543 8.50195H186.419V18.8431C186.419 20.0961 186.18 21.2797 185.706 22.3939C185.23 23.508 184.574 24.4832 183.738 25.3194C182.902 26.1557 181.932 26.8118 180.83 27.2878C179.727 27.7639 178.551 28.0006 177.295 28.0006C176.039 28.0006 174.858 27.7639 173.744 27.2878C172.63 26.8118 171.655 26.1557 170.819 25.3194C169.982 24.4832 169.326 23.508 168.85 22.3939C168.374 21.2797 168.138 20.0961 168.138 18.8431V8.50195H173.013V18.8431C173.013 19.4246 173.124 19.9752 173.345 20.4975C173.567 21.0199 173.873 21.4779 174.269 21.8741C174.663 22.2704 175.123 22.5766 175.646 22.7979C176.168 23.0191 176.719 23.1298 177.3 23.1298C177.882 23.1298 178.432 23.0191 178.955 22.7979C179.477 22.5766 179.93 22.2704 180.313 21.8741C180.697 21.4804 180.998 21.0199 181.219 20.4975C181.44 19.9752 181.551 19.4246 181.551 18.8431V8.50195H181.543Z" fill="black"/>
</g>
</g>
<defs>
<linearGradient id="paint0_linear_14_84" x1="64.6831" y1="17.9059" x2="106.467" y2="17.9059" gradientUnits="userSpaceOnUse">
<stop stop-color="#F5BF75"/>
<stop offset="0.32" stop-color="#E27098"/>
<stop offset="0.71" stop-color="#A151CC"/>
<stop offset="1" stop-color="#8042E8"/>
</linearGradient>
<clipPath id="clip0_14_84">
<rect width="186.253" height="28" fill="white" transform="translate(0.166626)"/>
</clipPath>
</defs>
</svg>
